<svg class="xduoyf" xmlns="http://www.w3.org/2000/svg" width="19" height="19" viewBox="0 0 19 19" fill="none">
    <path fill-rule="evenodd" clip-rule="evenodd"
        d="M9.50079 0C6.92075 0 6.59696 0.0112813 5.58362 0.0573958C4.57227 0.103708 3.88194 0.263823 3.2779 0.49875C2.65307 0.741396 2.12305 1.06598 1.59501 1.59422C1.06657 2.12226 0.74199 2.65228 0.498552 3.27691C0.263031 3.88115 0.102719 4.57168 0.0571979 5.58264C0.011875 6.59597 0 6.91996 0 9.5C0 12.08 0.0114792 12.4028 0.0573958 13.4162C0.103906 14.4275 0.264021 15.1179 0.49875 15.7219C0.741594 16.3467 1.06618 16.8768 1.59442 17.4048C2.12226 17.9332 2.65228 18.2586 3.27671 18.5013C3.88115 18.7362 4.57168 18.8963 5.58283 18.9426C6.59617 18.9887 6.91976 19 9.4996 19C12.0798 19 12.4026 18.9887 13.416 18.9426C14.4273 18.8963 15.1185 18.7362 15.7229 18.5013C16.3475 18.2586 16.8767 17.9332 17.4046 17.4048C17.933 16.8768 18.2576 16.3467 18.5011 15.7221C18.7346 15.1179 18.8949 14.4273 18.9424 13.4164C18.9879 12.403 18.9998 12.08 18.9998 9.5C18.9998 6.91996 18.9879 6.59617 18.9424 5.58283C18.8949 4.57148 18.7346 3.88115 18.5011 3.2771C18.2576 2.65228 17.933 2.12226 17.4046 1.59422C16.8762 1.06578 16.3477 0.741198 15.7223 0.49875C15.1167 0.263823 14.4259 0.103708 13.4146 0.0573958C12.4013 0.0112813 12.0787 0 9.49782 0H9.50079ZM8.64837 1.71194C8.90131 1.71154 9.18354 1.71194 9.5006 1.71194C12.0371 1.71194 12.3377 1.72104 13.3394 1.76656C14.2656 1.80892 14.7684 1.96369 15.1032 2.09372C15.5466 2.26591 15.8626 2.47174 16.1949 2.80424C16.5274 3.13674 16.7333 3.45341 16.9059 3.89674C17.0359 4.23122 17.1909 4.73393 17.233 5.66018C17.2785 6.66164 17.2884 6.96247 17.2884 9.49778C17.2884 12.0331 17.2785 12.3339 17.233 13.3354C17.1907 14.2616 17.0359 14.7643 16.9059 15.0988C16.7337 15.5422 16.5274 15.8578 16.1949 16.1901C15.8624 16.5226 15.5468 16.7285 15.1032 16.9007C14.7687 17.0313 14.2656 17.1857 13.3394 17.228C12.3379 17.2735 12.0371 17.2834 9.5006 17.2834C6.9639 17.2834 6.66327 17.2735 5.66181 17.228C4.73556 17.1853 4.23285 17.0305 3.89778 16.9005C3.45444 16.7283 3.13778 16.5224 2.80528 16.1899C2.47278 15.8574 2.26694 15.5416 2.09436 15.098C1.96433 14.7636 1.80936 14.2608 1.7672 13.3346C1.72168 12.3331 1.71258 12.0323 1.71258 9.49541C1.71258 6.95851 1.72168 6.65926 1.7672 5.6578C1.80956 4.73155 1.96433 4.22885 2.09436 3.89397C2.26655 3.45064 2.47278 3.13397 2.80528 2.80147C3.13778 2.46897 3.45444 2.26314 3.89778 2.09055C4.23265 1.95993 4.73556 1.80555 5.66181 1.763C6.53818 1.72342 6.87781 1.71154 8.64837 1.70956V1.71194ZM14.5716 3.28918C13.9422 3.28918 13.4316 3.79921 13.4316 4.42878C13.4316 5.05816 13.9422 5.56878 14.5716 5.56878C15.201 5.56878 15.7116 5.05816 15.7116 4.42878C15.7116 3.79941 15.201 3.28878 14.5716 3.28878V3.28918ZM9.50057 4.62123C6.80633 4.62123 4.62192 6.80563 4.62192 9.49987C4.62192 12.1941 6.80633 14.3775 9.50057 14.3775C12.1948 14.3775 14.3784 12.1941 14.3784 9.49987C14.3784 6.80563 12.1946 4.62123 9.50037 4.62123H9.50057ZM9.50117 6.33311C11.25 6.33311 12.6678 7.75079 12.6678 9.49978C12.6678 11.2486 11.25 12.6664 9.50117 12.6664C7.75218 12.6664 6.3345 11.2486 6.3345 9.49978C6.3345 7.75079 7.75218 6.33311 9.50117 6.33311Z"
        fill="#fefefe"></path>
</svg>